<svg width="112" height="112" version="1.1" xmlns="http://www.w3.org/2000/svg" desc="Created with imagetracer.js version 1.2.6" ><path fill="rgb(255,255,255)" stroke="rgb(255,255,255)" stroke-width="1" opacity="0.43137254901960786" d="M 13.5 5 L 98 5.5 L 13.5 6 L 7 11.5 L 6.5 13 L 6 11.5 L 13.5 5 Z " /><path fill="rgb(255,255,255)" stroke="rgb(255,255,255)" stroke-width="1" opacity="0.43137254901960786" d="M 99.5 6 L 106 11.5 L 107 17.5 L 106 17.5 Q 106.1 9.4 100.5 7 L 99.5 6 Z " /><path fill="rgb(255,255,255)" stroke="rgb(255,255,255)" stroke-width="1" opacity="0.43137254901960786" d="M 5.5 14 L 6 98.5 L 7 99.5 L 5 98.5 L 5.5 14 Z " /><path fill="rgb(255,255,255)" stroke="rgb(255,255,255)" stroke-width="1" opacity="0.43137254901960786" d="M 72.5 24 L 88 24 L 88 39.5 L 87 39.5 L 87 25 L 72.5 25 L 72.5 24 Z " /><path fill="rgb(255,255,255)" stroke="rgb(255,255,255)" stroke-width="1" opacity="0.43137254901960786" d="M 68.5 25 L 71 25.5 L 68.5 26 L 68.5 25 Z " /><path fill="rgb(255,255,255)" stroke="rgb(255,255,255)" stroke-width="1" opacity="0.43137254901960786" d="M 66.5 26 L 65.5 28 L 59.5 33 L 64.5 27 L 66.5 26 Z " /><path fill="rgb(255,255,255)" stroke="rgb(255,255,255)" stroke-width="1" opacity="0.43137254901960786" d="M 57.5 36 L 58 37.5 L 57 38.5 L 57 55.5 L 55.5 57 L 44 57 L 44 71 L 55.5 71 L 57 72.5 L 56.5 107 L 56 72 L 43 72 L 43 56 L 56 56 L 56 38.5 L 57.5 36 Z " /><path fill="rgb(255,255,255)" stroke="rgb(255,255,255)" stroke-width="1" opacity="0.43137254901960786" d="M 75 40 L 77 40.5 L 75 42.5 L 75 56 L 91 56.5 L 75.5 57 L 74 55.5 L 74 42.5 L 75 40 Z " /><path fill="rgb(255,255,255)" stroke="rgb(255,255,255)" stroke-width="1" opacity="0.43137254901960786" d="M 89.5 58 L 90 59.5 L 86.5 67 L 86 65.5 L 89.5 58 Z " /><path fill="rgb(255,255,255)" stroke="rgb(255,255,255)" stroke-width="1" opacity="0.43137254901960786" d="M 85.5 68 L 86 69.5 L 85 72 L 75.5 72 L 75 72.5 L 75 106.5 L 74 106.5 L 74 71.5 L 74.5 71 L 83.5 71 L 85.5 68 Z " /><path fill="rgb(255,255,255)" stroke="rgb(255,255,255)" stroke-width="1" opacity="0.43137254901960786" d="M 106.5 94 L 107 98.5 L 101.5 105 L 105 100.5 L 106.5 94 Z " /><path fill="rgb(255,255,255)" stroke="rgb(255,255,255)" stroke-width="1" opacity="0.43137254901960786" d="M 7.5 101 L 13 105.5 L 11.5 106 L 7.5 101 Z " /><path fill="rgb(255,255,255)" stroke="rgb(255,255,255)" stroke-width="1" opacity="0.43137254901960786" d="M 99.5 105 L 98.5 107 L 94 106.5 L 99.5 105 Z " /><path fill="rgb(255,255,255)" stroke="rgb(255,255,255)" stroke-width="1" opacity="0.43137254901960786" d="M 14.5 106 L 18 106.5 L 14.5 107 L 14.5 106 Z " /><path fill="rgb(255,255,255)" stroke="rgb(255,255,255)" stroke-width="1" opacity="0.996078431372549" d="M 11.5 7 L 10.5 9 L 11.5 7 Z " /><path fill="rgb(255,255,255)" stroke="rgb(255,255,255)" stroke-width="1" opacity="0.996078431372549" d="M 100.5 7 L 101.5 9 L 100.5 7 Z " /><path fill="rgb(255,255,255)" stroke="rgb(255,255,255)" stroke-width="1" opacity="0.996078431372549" d="M 8.5 10 L 7.5 12 L 8.5 10 Z " /><path fill="rgb(255,255,255)" stroke="rgb(255,255,255)" stroke-width="1" opacity="0.996078431372549" d="M 103.5 10 L 104.5 12 L 103.5 10 Z " /><path fill="rgb(255,255,255)" stroke="rgb(255,255,255)" stroke-width="1" opacity="0.996078431372549" d="M 106.5 18 L 107 93.5 L 106 93.5 L 106.5 18 Z " /><path fill="rgb(255,255,255)" stroke="rgb(255,255,255)" stroke-width="1" opacity="0.996078431372549" d="M 69.5 24 L 72 24.5 L 69.5 25 L 69.5 24 Z " /><path fill="rgb(255,255,255)" stroke="rgb(255,255,255)" stroke-width="1" opacity="0.996078431372549" d="M 62.5 28 L 59.5 32 L 62.5 28 Z " /><path fill="rgb(255,255,255)" stroke="rgb(255,255,255)" stroke-width="1" opacity="0.996078431372549" d="M 77.5 40 L 88 40.5 L 77.5 41 L 77.5 40 Z " /><path fill="rgb(255,255,255)" stroke="rgb(255,255,255)" stroke-width="1" opacity="0.996078431372549" d="M 7.5 100 L 11.5 105 L 7.5 100 Z " /><path fill="rgb(255,255,255)" stroke="rgb(255,255,255)" stroke-width="1" opacity="0.996078431372549" d="M 104.5 100 L 100.5 105 L 104.5 100 Z " /><path fill="rgb(255,255,255)" stroke="rgb(255,255,255)" stroke-width="1" opacity="0.996078431372549" d="M 18.5 106 L 56 106.5 L 18.5 107 L 18.5 106 Z " /><path fill="rgb(255,255,255)" stroke="rgb(255,255,255)" stroke-width="1" opacity="0.996078431372549" d="M 75.5 106 L 94 106.5 L 75.5 107 L 75.5 106 Z " /><path fill="rgb(0,0,0)" stroke="rgb(0,0,0)" stroke-width="1" opacity="0" d="M 0 0 L 112 0 L 112 112 L 0 112 L 0 0 Z M 14 5 L 12 6 Q 6 8 5 15 L 5 99 L 7 102 L 15 107 L 57 107 L 57 73 L 56 71 L 44 71 L 44 57 L 56 57 L 57 56 L 57 39 L 59 34 L 68 26 L 87 25 L 87 40 L 75 40 L 74 43 L 74 56 L 76 57 L 90 58 L 84 71 L 75 71 L 74 72 L 74 107 L 99 107 L 102 105 L 107 99 L 107 14 L 106 12 Q 104 6 98 5 L 14 5 Z " /><path fill="rgb(255,255,255)" stroke="rgb(255,255,255)" stroke-width="1" opacity="1" d="M 15.5 6 L 96.5 6 L 103 9 L 106 15.5 L 106 96.5 Q 104.6 102.6 99.5 105 L 96.5 106 L 75 106 L 75 72.5 L 75.5 72 L 84.5 72 L 91 56 L 75 56 L 75 43.5 L 76 41 L 88 41 L 88 24 L 69.5 24 L 59 31.5 L 56 37.5 L 56 56 L 43 56 L 43 72 L 56 72 L 56 106 L 15.5 106 Q 9.4 104.6 7 99.5 L 6 96.5 L 6 15.5 L 9 9 L 15.5 6 Z " /></svg>